<svg xmlns="http://www.w3.org/2000/svg" viewBox="0 0 640 340"><rect width="640" height="340" fill="#1b5965"/><circle cx="606" cy="15" r="170" fill="white" opacity=".06"/><rect x="72" y="43" width="496" height="227" rx="8" fill="#edf2ee"/><rect x="72" y="43" width="496" height="23" rx="6" fill="#243b48"/><circle cx="86" cy="54" r="3" fill="#fc8c67"/><circle cx="97" cy="54" r="3" fill="#efc261"/><circle cx="108" cy="54" r="3" fill="#8cc96d"/><rect x="124" y="98" width="113" height="135" rx="7" fill="#f7f3e8"/><rect x="134" y="108" width="93" height="76" rx="4" fill="#ecc896"/><rect x="134" y="198" width="70" height="6" fill="#9a9a91"/><rect x="134" y="214" width="47" height="9" fill="#75a93e"/><rect x="259" y="98" width="113" height="135" rx="7" fill="#f7f3e8"/><rect x="269" y="108" width="93" height="76" rx="4" fill="#adc8ba"/><rect x="269" y="198" width="70" height="6" fill="#9a9a91"/><rect x="269" y="214" width="47" height="9" fill="#75a93e"/><rect x="394" y="98" width="113" height="135" rx="7" fill="#f7f3e8"/><rect x="404" y="108" width="93" height="76" rx="4" fill="#b1bbd9"/><rect x="404" y="198" width="70" height="6" fill="#9a9a91"/><rect x="404" y="214" width="47" height="9" fill="#75a93e"/><text x="32" y="310" fill="white" font-family="Arial" font-weight="bold" font-size="21">GameHub</text><text x="540" y="312" fill="white" font-family="Arial" font-size="14">VF013</text></svg>